<svg width="44" height="44" viewBox="0 0 44 44" fill="none" xmlns="http://www.w3.org/2000/svg">
<path fill-rule="evenodd" clip-rule="evenodd" d="M0 22C0 16.1652 2.31785 10.5695 6.44365 6.44365C10.5695 2.31785 16.1652 0 22 0C27.8348 0 33.4306 2.31785 37.5564 6.44365C41.6822 10.5695 44 16.1652 44 22C44 27.8348 41.6822 33.4306 37.5564 37.5564C33.4306 41.6822 27.8348 44 22 44C16.1652 44 10.5695 41.6822 6.44365 37.5564C2.31785 33.4306 0 27.8348 0 22ZM22 3.15567C17.0022 3.15567 12.209 5.14105 8.67505 8.67505C5.14105 12.209 3.15567 17.0022 3.15567 22C3.15567 26.9978 5.14105 31.791 8.67505 35.325C12.209 38.859 17.0022 40.8443 22 40.8443C26.9978 40.8443 31.791 38.859 35.325 35.325C38.859 31.791 40.8443 26.9978 40.8443 22C40.8443 17.0022 38.859 12.209 35.325 8.67505C31.791 5.14105 26.9978 3.15567 22 3.15567ZM29.8194 14.1839C30.1308 14.4954 30.3057 14.9177 30.3057 15.3581C30.3057 15.7986 30.1308 16.2209 29.8194 16.5324L24.3485 22L29.8194 27.4676C30.1313 27.7795 30.3065 28.2025 30.3065 28.6435C30.3065 29.0846 30.1313 29.5075 29.8194 29.8194C29.5075 30.1313 29.0846 30.3065 28.6435 30.3065C28.2025 30.3065 27.7795 30.1313 27.4676 29.8194L22 24.3485L16.5324 29.8194C16.378 29.9738 16.1946 30.0963 15.9929 30.1799C15.7911 30.2635 15.5749 30.3065 15.3565 30.3065C15.1381 30.3065 14.9219 30.2635 14.7201 30.1799C14.5183 30.0963 14.335 29.9738 14.1806 29.8194C14.0262 29.665 13.9037 29.4817 13.8201 29.2799C13.7365 29.0781 13.6935 28.8619 13.6935 28.6435C13.6935 28.4251 13.7365 28.2089 13.8201 28.0071C13.9037 27.8054 14.0262 27.622 14.1806 27.4676L19.6515 22L14.1806 16.5324C13.8687 16.2205 13.6935 15.7975 13.6935 15.3565C13.6935 14.9154 13.8687 14.4925 14.1806 14.1806C14.4925 13.8687 14.9154 13.6935 15.3565 13.6935C15.7975 13.6935 16.2205 13.8687 16.5324 14.1806L22 19.6515L27.4676 14.1806C27.6219 14.0259 27.8052 13.9032 28.007 13.8195C28.2087 13.7357 28.4251 13.6926 28.6435 13.6926C28.862 13.6926 29.0783 13.7357 29.2801 13.8195C29.4819 13.9032 29.6651 14.0292 29.8194 14.1839Z" fill="#F8F8F8"/>
</svg>
