<svg width="72" height="60" viewBox="0 0 72 60" fill="none" xmlns="http://www.w3.org/2000/svg">
<path d="M58.9091 18V12H52.3636V6H58.9091V0H65.4545V6H72V12H65.4545V18H58.9091ZM6.54546 60C4.74546 60 3.20401 59.412 1.9211 58.236C0.638187 57.06 -0.00217626 55.648 5.55641e-06 54V18C5.55641e-06 16.35 0.64146 14.937 1.92437 13.761C3.20728 12.585 4.74764 11.998 6.54546 12H16.8546L22.9091 6H42.5455V12H25.7727L19.8 18H6.54546V54H58.9091V27H65.4545V54C65.4545 55.65 64.8131 57.063 63.5302 58.239C62.2473 59.415 60.7069 60.002 58.9091 60H6.54546ZM32.7273 49.5C36.8182 49.5 40.296 48.187 43.1607 45.561C46.0255 42.935 47.4567 39.748 47.4545 36C47.4545 32.25 46.0222 29.062 43.1575 26.436C40.2927 23.81 36.816 22.498 32.7273 22.5C28.6364 22.5 25.1585 23.813 22.2938 26.439C19.4291 29.065 17.9978 32.252 18 36C18 39.75 19.4324 42.938 22.2971 45.564C25.1618 48.19 28.6385 49.502 32.7273 49.5ZM32.7273 43.5C30.4364 43.5 28.5 42.775 26.9182 41.325C25.3364 39.875 24.5455 38.1 24.5455 36C24.5455 33.9 25.3364 32.125 26.9182 30.675C28.5 29.225 30.4364 28.5 32.7273 28.5C35.0182 28.5 36.9545 29.225 38.5364 30.675C40.1182 32.125 40.9091 33.9 40.9091 36C40.9091 38.1 40.1182 39.875 38.5364 41.325C36.9545 42.775 35.0182 43.5 32.7273 43.5Z" fill="#F8F8F8"/>
</svg>
