<svg width="42" height="35" viewBox="0 0 42 35" fill="none" xmlns="http://www.w3.org/2000/svg">
<path d="M42 32.0833C42 33.6942 40.6942 35 39.0833 35H2.91666C1.30583 35 0 33.6942 0 32.0833V32.0833C0 30.4725 1.30584 29.1667 2.91667 29.1667H39.0833C40.6942 29.1667 42 30.4725 42 32.0833V32.0833ZM42 17.5C42 19.1108 40.6942 20.4167 39.0833 20.4167H2.91667C1.30584 20.4167 0 19.1108 0 17.5V17.5C0 15.8892 1.30584 14.5833 2.91667 14.5833H39.0833C40.6942 14.5833 42 15.8892 42 17.5V17.5ZM42 2.91667C42 4.5275 40.6942 5.83333 39.0833 5.83333H2.91667C1.30584 5.83333 0 4.5275 0 2.91667V2.91667C0 1.30584 1.30584 0 2.91667 0H39.0833C40.6942 0 42 1.30584 42 2.91667V2.91667Z" fill="#F8F8F8"/>
</svg>
