<svg width="21" height="31" viewBox="0 0 21 31" fill="none" xmlns="http://www.w3.org/2000/svg">
<path d="M0.166687 15.5002C0.166536 17.7901 0.751808 20.0477 1.87512 22.0905C2.99843 24.1332 4.62821 25.9036 6.63251 27.2583C8.6368 28.613 10.9593 29.514 13.4119 29.8883C15.8646 30.2626 18.3785 30.0997 20.75 29.4127C17.5352 28.4822 14.7266 26.6312 12.7327 24.129C10.7388 21.6269 9.66362 18.604 9.66362 15.5002C9.66362 12.3964 10.7388 9.3736 12.7327 6.87143C14.7266 4.36926 17.5352 2.51828 20.75 1.58774C18.3785 0.900794 15.8646 0.73787 13.4119 1.11216C10.9593 1.48645 8.6368 2.38743 6.63251 3.74215C4.62821 5.09688 2.99843 6.86728 1.87512 8.91002C0.751808 10.9528 0.166536 13.2104 0.166687 15.5002Z" fill="#F8F8F8"/>
</svg>
