<svg width="100" height="82" viewBox="0 0 100 82" fill="none" xmlns="http://www.w3.org/2000/svg">
<path d="M36.513 54.6667C24.3268 54.6667 0 60.7711 0 72.8889V77.4444C0 79.95 2.05386 82 4.56413 82H68.4619C70.9722 82 73.026 79.95 73.026 77.4444V72.8889C73.026 60.7711 48.6992 54.6667 36.513 54.6667ZM17.0698 27.3333H56.0018C57.2341 27.3333 58.2382 26.3311 58.2382 25.1011V25.01C58.2382 24.418 58.0026 23.8502 57.5832 23.4316C57.1638 23.013 56.595 22.7778 56.0018 22.7778H54.7695C54.7695 16.0356 51.0726 10.25 45.6413 7.06111V11.3889C45.6413 12.6644 44.6372 13.6667 43.3592 13.6667C42.0812 13.6667 41.0771 12.6644 41.0771 11.3889V5.19333C39.6166 4.82889 38.1105 4.55556 36.513 4.55556C34.9156 4.55556 33.4094 4.82889 31.9489 5.19333V11.3889C31.9489 12.6644 30.9448 13.6667 29.6668 13.6667C28.3889 13.6667 27.3848 12.6644 27.3848 11.3889V7.06111C21.9534 10.25 18.2565 16.0356 18.2565 22.7778H17.0698C16.7761 22.7778 16.4853 22.8355 16.214 22.9477C15.9427 23.0599 15.6961 23.2243 15.4884 23.4316C15.2808 23.6389 15.116 23.8849 15.0036 24.1558C14.8913 24.4266 14.8334 24.7169 14.8334 25.01V25.1467C14.8334 26.3311 15.8375 27.3333 17.0698 27.3333ZM36.513 45.5556C45.0023 45.5556 52.0767 39.7244 54.1305 31.8889H18.8955C20.9493 39.7244 28.0237 45.5556 36.513 45.5556ZM95.7554 14.7144L100 10.9333L96.5769 5.01111L91.1456 6.78778C90.5066 6.28667 89.7764 5.87667 89.0005 5.55778L87.8594 0H81.0132L79.8722 5.55778C79.0963 5.87667 78.366 6.28667 77.6814 6.78778L72.2958 5.01111L68.8727 10.9333L73.1173 14.7144C73.026 15.4889 73.026 16.3089 73.1173 17.0833L68.8727 20.9556L72.2958 26.8778L77.7727 25.1467C78.366 25.6022 79.0507 25.9667 79.7353 26.2856L81.0132 31.8889H87.8594L89.0917 26.3311C89.822 26.0122 90.461 25.6478 91.1 25.1922L96.5313 26.9233L99.9544 21.0011L95.7097 17.1289C95.8466 16.2633 95.801 15.4889 95.7554 14.7144ZM84.4363 21.6389C82.9232 21.6389 81.4721 21.0389 80.4022 19.971C79.3322 18.9031 78.7312 17.4547 78.7312 15.9444C78.7312 14.4342 79.3322 12.9858 80.4022 11.9179C81.4721 10.8499 82.9232 10.25 84.4363 10.25C85.9494 10.25 87.4006 10.8499 88.4705 11.9179C89.5404 12.9858 90.1415 14.4342 90.1415 15.9444C90.1415 17.4547 89.5404 18.9031 88.4705 19.971C87.4006 21.0389 85.9494 21.6389 84.4363 21.6389ZM83.9799 35.4878L80.1004 36.7633C79.644 36.3989 79.1419 36.1256 78.5942 35.8978L77.7727 31.8889H72.8891L72.0676 35.8522C71.5199 36.08 70.9722 36.3989 70.5158 36.7178L66.6819 35.4422L64.2173 39.6789L67.2296 42.3667C67.1839 42.9589 67.1839 43.5056 67.2296 44.0522L64.2173 46.8311L66.6819 51.0678L70.607 49.8378C71.0634 50.1567 71.5199 50.43 72.0219 50.6578L72.8434 54.6667H77.7271L78.5942 50.7033C79.0963 50.4756 79.5984 50.2022 80.0548 49.8833L83.9343 51.1133L86.3989 46.8767L83.3866 44.0978C83.4322 43.5056 83.4322 42.9589 83.3866 42.4122L86.3989 39.7244L83.9799 35.4878ZM75.3081 47.3322C73.0717 47.3322 71.246 45.51 71.246 43.2778C71.246 41.0456 73.0717 39.2233 75.3081 39.2233C77.5445 39.2233 79.3701 41.0456 79.3701 43.2778C79.3701 45.51 77.5445 47.3322 75.3081 47.3322Z" fill="#F8F8F8"/>
</svg>
