<svg width="38" height="35" viewBox="0 0 38 35" fill="none" xmlns="http://www.w3.org/2000/svg">
<path d="M19 7.65625C16.8862 7.65625 14.8199 8.23358 13.0623 9.31522C11.3048 10.3969 9.93495 11.9342 9.12604 13.733C8.31713 15.5317 8.10548 17.5109 8.51786 19.4204C8.93024 21.3299 9.94812 23.0839 11.4428 24.4606C12.9375 25.8373 14.8418 26.7748 16.915 27.1546C18.9881 27.5344 21.137 27.3395 23.0899 26.5944C25.0428 25.8494 26.712 24.5877 27.8863 22.9689C29.0607 21.3501 29.6875 19.4469 29.6875 17.5C29.6836 14.8904 28.5563 12.3887 26.5529 10.5434C24.5494 8.69813 21.8333 7.65987 19 7.65625ZM19 24.0625C17.5908 24.0625 16.2133 23.6776 15.0416 22.9565C13.8699 22.2354 12.9566 21.2105 12.4174 20.0114C11.8781 18.8122 11.737 17.4927 12.0119 16.2197C12.2868 14.9467 12.9654 13.7774 13.9619 12.8596C14.9583 11.9418 16.2279 11.3168 17.61 11.0636C18.9921 10.8104 20.4247 10.9403 21.7266 11.437C23.0285 11.9337 24.1413 12.7749 24.9242 13.8541C25.7071 14.9333 26.125 16.2021 26.125 17.5C26.125 19.2405 25.3743 20.9097 24.0381 22.1404C22.7019 23.3711 20.8897 24.0625 19 24.0625ZM17.2188 3.82812V1.64062C17.2188 1.2055 17.4064 0.788205 17.7405 0.480528C18.0745 0.172851 18.5276 0 19 0C19.4724 0 19.9255 0.172851 20.2595 0.480528C20.5936 0.788205 20.7812 1.2055 20.7812 1.64062V3.82812C20.7812 4.26325 20.5936 4.68055 20.2595 4.98822C19.9255 5.2959 19.4724 5.46875 19 5.46875C18.5276 5.46875 18.0745 5.2959 17.7405 4.98822C17.4064 4.68055 17.2188 4.26325 17.2188 3.82812ZM28.2328 8.99609C28.0668 8.84367 27.935 8.66256 27.8451 8.46314C27.7552 8.26372 27.7089 8.04991 27.7089 7.83398C27.7089 7.61805 27.7552 7.40425 27.8451 7.20483C27.935 7.00541 28.0668 6.82429 28.2328 6.67188L29.9102 5.12695C30.2448 4.81874 30.6986 4.64559 31.1719 4.64559C31.6451 4.64559 32.099 4.81874 32.4336 5.12695C32.7682 5.43516 32.9562 5.85319 32.9562 6.28906C32.9562 6.72494 32.7682 7.14296 32.4336 7.45117L30.7563 8.99609C30.5904 9.14832 30.3936 9.26893 30.1771 9.35104C29.9606 9.43315 29.7287 9.47514 29.4945 9.47461C29.0223 9.47272 28.5696 9.30102 28.2328 8.99609ZM38 17.5C38 17.9351 37.8123 18.3524 37.4783 18.6601C37.1442 18.9678 36.6912 19.1406 36.2188 19.1406H33.8438C33.3713 19.1406 32.9183 18.9678 32.5842 18.6601C32.2502 18.3524 32.0625 17.9351 32.0625 17.5C32.0625 17.0649 32.2502 16.6476 32.5842 16.3399C32.9183 16.0322 33.3713 15.8594 33.8438 15.8594H36.2188C36.6912 15.8594 37.1442 16.0322 37.4783 16.3399C37.8123 16.6476 38 17.0649 38 17.5ZM32.4336 27.5488C32.5997 27.7012 32.7314 27.8824 32.8213 28.0818C32.9112 28.2812 32.9575 28.495 32.9575 28.7109C32.9575 28.9269 32.9112 29.1407 32.8213 29.3401C32.7314 29.5395 32.5997 29.7206 32.4336 29.873C32.2698 30.0278 32.0734 30.15 31.8564 30.2323C31.6394 30.3146 31.4065 30.3552 31.1719 30.3516C30.9377 30.3521 30.7058 30.3101 30.4893 30.228C30.2728 30.1459 30.076 30.0253 29.9102 29.873L28.2328 28.3281C27.8982 28.0199 27.7102 27.6019 27.7102 27.166C27.7102 26.7301 27.8982 26.3121 28.2328 26.0039C28.5674 25.6957 29.0213 25.5225 29.4945 25.5225C29.9678 25.5225 30.4216 25.6957 30.7563 26.0039L32.4336 27.5488ZM20.7812 31.1719V33.3594C20.7812 33.7945 20.5936 34.2118 20.2595 34.5195C19.9255 34.8271 19.4724 35 19 35C18.5276 35 18.0745 34.8271 17.7405 34.5195C17.4064 34.2118 17.2188 33.7945 17.2188 33.3594V31.1719C17.2188 30.7368 17.4064 30.3195 17.7405 30.0118C18.0745 29.7041 18.5276 29.5312 19 29.5312C19.4724 29.5312 19.9255 29.7041 20.2595 30.0118C20.5936 30.3195 20.7812 30.7368 20.7812 31.1719ZM9.76719 26.0039C9.93325 26.1563 10.065 26.3374 10.1549 26.5369C10.2448 26.7363 10.2911 26.9501 10.2911 27.166C10.2911 27.3819 10.2448 27.5957 10.1549 27.7952C10.065 27.9946 9.93325 28.1757 9.76719 28.3281L8.08984 29.873C7.924 30.0253 7.7272 30.1459 7.5107 30.228C7.29421 30.3101 7.06226 30.3521 6.82812 30.3516C6.59352 30.3552 6.36058 30.3146 6.14361 30.2323C5.92664 30.15 5.73022 30.0278 5.56641 29.873C5.40035 29.7206 5.26859 29.5395 5.17868 29.3401C5.08878 29.1407 5.0425 28.9269 5.0425 28.7109C5.0425 28.495 5.08878 28.2812 5.17868 28.0818C5.26859 27.8824 5.40035 27.7012 5.56641 27.5488L7.24375 26.0039C7.40923 25.851 7.60587 25.7296 7.82239 25.6468C8.0389 25.564 8.27103 25.5214 8.50547 25.5214C8.73991 25.5214 8.97204 25.564 9.18855 25.6468C9.40507 25.7296 9.6017 25.851 9.76719 26.0039ZM4.15625 19.1406H1.78125C1.30883 19.1406 0.855765 18.9678 0.521716 18.6601C0.187667 18.3524 0 17.9351 0 17.5C0 17.0649 0.187667 16.6476 0.521716 16.3399C0.855765 16.0322 1.30883 15.8594 1.78125 15.8594H4.15625C4.62867 15.8594 5.08174 16.0322 5.41578 16.3399C5.74983 16.6476 5.9375 17.0649 5.9375 17.5C5.9375 17.9351 5.74983 18.3524 5.41578 18.6601C5.08174 18.9678 4.62867 19.1406 4.15625 19.1406ZM5.56641 7.45117C5.23178 7.14296 5.04379 6.72494 5.04379 6.28906C5.04379 5.85319 5.23178 5.43516 5.56641 5.12695C5.90103 4.81874 6.35489 4.64559 6.82812 4.64559C7.30136 4.64559 7.75522 4.81874 8.08984 5.12695L9.76719 6.67188C9.93325 6.82429 10.065 7.00541 10.1549 7.20483C10.2448 7.40425 10.2911 7.61805 10.2911 7.83398C10.2911 8.04991 10.2448 8.26372 10.1549 8.46314C10.065 8.66256 9.93325 8.84367 9.76719 8.99609C9.43044 9.30102 8.97769 9.47272 8.50547 9.47461C8.27134 9.47514 8.03939 9.43315 7.82289 9.35104C7.60639 9.26893 7.40959 9.14832 7.24375 8.99609L5.56641 7.45117Z" fill="#F8F8F8"/>
</svg>
