<svg width="77" height="74" viewBox="0 0 77 74" fill="none" xmlns="http://www.w3.org/2000/svg">
<path d="M56.4922 3.46875C56.4922 2.54878 56.8974 1.66649 57.6185 1.01597C58.3396 0.365456 59.3176 0 60.3374 0H73.1548C74.1746 0 75.1527 0.365456 75.8738 1.01597C76.5949 1.66649 77 2.54878 77 3.46875V15.0312C77 15.9512 76.5949 16.8335 75.8738 17.484C75.1527 18.1345 74.1746 18.5 73.1548 18.5C72.135 18.5 71.1569 18.1345 70.4358 17.484C69.7147 16.8335 69.3096 15.9512 69.3096 15.0312V11.84L46.3922 32.5137C45.6712 33.1633 44.6939 33.5282 43.6749 33.5282C42.6559 33.5282 41.6786 33.1633 40.9576 32.5137L28.2941 21.09L6.6584 40.6075C6.30637 40.9483 5.88186 41.2216 5.41018 41.4112C4.93851 41.6008 4.42934 41.7028 3.91304 41.711C3.39674 41.7192 2.8839 41.6335 2.4051 41.4591C1.92631 41.2846 1.49137 41.0249 1.12623 40.6956C0.7611 40.3662 0.47325 39.9738 0.279857 39.5419C0.0864636 39.11 -0.00851104 38.6473 0.000598422 38.1816C0.00970789 37.7158 0.122716 37.2565 0.332879 36.831C0.543042 36.4055 0.846056 36.0226 1.22384 35.705L25.5768 13.7362C26.2978 13.0867 27.2751 12.7218 28.2941 12.7218C29.3131 12.7218 30.2904 13.0867 31.0114 13.7362L43.6749 25.16L63.875 6.9375H60.3374C59.3176 6.9375 58.3396 6.57204 57.6185 5.92153C56.8974 5.27101 56.4922 4.38872 56.4922 3.46875ZM3.94112 55.5C4.96093 55.5 5.93898 55.8655 6.66009 56.516C7.38121 57.1665 7.78632 58.0488 7.78632 58.9688V70.5312C7.78632 71.4512 7.38121 72.3335 6.66009 72.984C5.93898 73.6345 4.96093 74 3.94112 74C2.92131 74 1.94327 73.6345 1.22215 72.984C0.501035 72.3335 0.0959166 71.4512 0.0959166 70.5312V58.9688C0.0959166 58.0488 0.501035 57.1665 1.22215 56.516C1.94327 55.8655 2.92131 55.5 3.94112 55.5ZM28.2941 45.0938C28.2941 44.1738 27.889 43.2915 27.1678 42.641C26.4467 41.9905 25.4687 41.625 24.4489 41.625C23.4291 41.625 22.451 41.9905 21.7299 42.641C21.0088 43.2915 20.6037 44.1738 20.6037 45.0938V70.5312C20.6037 71.4512 21.0088 72.3335 21.7299 72.984C22.451 73.6345 23.4291 74 24.4489 74C25.4687 74 26.4467 73.6345 27.1678 72.984C27.889 72.3335 28.2941 71.4512 28.2941 70.5312V45.0938ZM44.9566 50.875C45.9764 50.875 46.9545 51.2405 47.6756 51.891C48.3967 52.5415 48.8018 53.4238 48.8018 54.3438V70.5312C48.8018 71.4512 48.3967 72.3335 47.6756 72.984C46.9545 73.6345 45.9764 74 44.9566 74C43.9368 74 42.9588 73.6345 42.2377 72.984C41.5165 72.3335 41.1114 71.4512 41.1114 70.5312V54.3438C41.1114 53.4238 41.5165 52.5415 42.2377 51.891C42.9588 51.2405 43.9368 50.875 44.9566 50.875ZM69.3096 35.8438C69.3096 34.9238 68.9045 34.0415 68.1834 33.391C67.4622 32.7405 66.4842 32.375 65.4644 32.375C64.4446 32.375 63.4665 32.7405 62.7454 33.391C62.0243 34.0415 61.6192 34.9238 61.6192 35.8438V70.5312C61.6192 71.4512 62.0243 72.3335 62.7454 72.984C63.4665 73.6345 64.4446 74 65.4644 74C66.4842 74 67.4622 73.6345 68.1834 72.984C68.9045 72.3335 69.3096 71.4512 69.3096 70.5312V35.8438Z" fill="#F8F8F8"/>
</svg>
